<svg width="142" height="32" viewBox="0 0 142 32" fill="none" xmlns="http://www.w3.org/2000/svg">
<path d="M21.3662 18.4616C21.4646 17.6493 21.5385 16.837 21.5385 16.0001C21.5385 15.1632 21.4646 14.3508 21.3662 13.5385H25.5262C25.7231 14.3262 25.8462 15.1508 25.8462 16.0001C25.8462 16.8493 25.7231 17.6739 25.5262 18.4616M19.1877 25.3047C19.9262 23.9385 20.4923 22.4616 20.8862 20.9232H24.5169C23.3245 22.9764 21.4328 24.5318 19.1877 25.3047ZM18.88 18.4616H13.12C12.9969 17.6493 12.9231 16.837 12.9231 16.0001C12.9231 15.1632 12.9969 14.3385 13.12 13.5385H18.88C18.9908 14.3385 19.0769 15.1632 19.0769 16.0001C19.0769 16.837 18.9908 17.6493 18.88 18.4616ZM16 25.797C14.9785 24.3201 14.1538 22.6832 13.6492 20.9232H18.3508C17.8462 22.6832 17.0215 24.3201 16 25.797ZM11.0769 11.077H7.48308C8.66321 9.01819 10.5536 7.46037 12.8 6.69546C12.0615 8.06161 11.5077 9.53854 11.0769 11.077ZM7.48308 20.9232H11.0769C11.5077 22.4616 12.0615 23.9385 12.8 25.3047C10.5583 24.5314 8.67058 22.9757 7.48308 20.9232ZM6.47385 18.4616C6.27692 17.6739 6.15385 16.8493 6.15385 16.0001C6.15385 15.1508 6.27692 14.3262 6.47385 13.5385H10.6338C10.5354 14.3508 10.4615 15.1632 10.4615 16.0001C10.4615 16.837 10.5354 17.6493 10.6338 18.4616M16 6.19084C17.0215 7.66777 17.8462 9.317 18.3508 11.077H13.6492C14.1538 9.317 14.9785 7.66777 16 6.19084ZM24.5169 11.077H20.8862C20.5009 9.55264 19.9306 8.08118 19.1877 6.69546C21.4523 7.47084 23.3354 9.03392 24.5169 11.077ZM16 3.69238C9.19385 3.69238 3.69231 9.23084 3.69231 16.0001C3.69231 19.2643 4.98901 22.3948 7.29715 24.7029C8.44002 25.8458 9.79681 26.7524 11.29 27.3709C12.7833 27.9894 14.3837 28.3078 16 28.3078C19.2642 28.3078 22.3947 27.0111 24.7029 24.7029C27.011 22.3948 28.3077 19.2643 28.3077 16.0001C28.3077 14.3838 27.9893 12.7834 27.3708 11.2901C26.7523 9.79689 25.8457 8.4401 24.7029 7.29722C23.56 6.15435 22.2032 5.24777 20.7099 4.62925C19.2167 4.01073 17.6163 3.69238 16 3.69238Z" fill="#6172F3"/>
<path d="M42.1477 22V10.3636H46.5114C47.4053 10.3636 48.1553 10.5303 48.7614 10.8636C49.3712 11.197 49.8314 11.6553 50.142 12.2386C50.4564 12.8182 50.6136 13.4773 50.6136 14.2159C50.6136 14.9621 50.4564 15.625 50.142 16.2045C49.8277 16.7841 49.3636 17.2405 48.75 17.5739C48.1364 17.9034 47.3807 18.0682 46.483 18.0682H43.5909V16.3352H46.1989C46.7216 16.3352 47.1496 16.2443 47.483 16.0625C47.8163 15.8807 48.0625 15.6307 48.2216 15.3125C48.3845 14.9943 48.4659 14.6288 48.4659 14.2159C48.4659 13.803 48.3845 13.4394 48.2216 13.125C48.0625 12.8106 47.8144 12.5663 47.4773 12.392C47.1439 12.214 46.714 12.125 46.1875 12.125H44.2557V22H42.1477ZM52.4446 22V10.3636H60.0128V12.1307H54.5526V15.2898H59.6207V17.0568H54.5526V20.233H60.0582V22H52.4446ZM62.1634 22V10.3636H66.527C67.4209 10.3636 68.1709 10.5189 68.777 10.8295C69.3868 11.1402 69.8471 11.5758 70.1577 12.1364C70.4721 12.6932 70.6293 13.3428 70.6293 14.0852C70.6293 14.8314 70.4702 15.4792 70.152 16.0284C69.8376 16.5739 69.3736 16.9962 68.7599 17.2955C68.1463 17.5909 67.3925 17.7386 66.4986 17.7386H63.3906V15.9886H66.2145C66.7372 15.9886 67.1652 15.9167 67.4986 15.7727C67.8319 15.625 68.0781 15.411 68.2372 15.1307C68.4001 14.8466 68.4815 14.4981 68.4815 14.0852C68.4815 13.6723 68.4001 13.3201 68.2372 13.0284C68.0743 12.733 67.8262 12.5095 67.4929 12.358C67.1596 12.2027 66.7296 12.125 66.2031 12.125H64.2713V22H62.1634ZM68.1747 16.7273L71.0554 22H68.7031L65.8736 16.7273H68.1747ZM82.1321 10.3636V22H80.2571L74.7741 14.0739H74.6776V22H72.5696V10.3636H74.456L79.9332 18.2955H80.0355V10.3636H82.1321Z" fill="white"/>
<path d="M91.4716 13.5625C91.4186 13.0663 91.1951 12.6799 90.8011 12.4034C90.411 12.1269 89.9034 11.9886 89.2784 11.9886C88.839 11.9886 88.4621 12.0549 88.1477 12.1875C87.8333 12.3201 87.5928 12.5 87.4261 12.7273C87.2595 12.9545 87.1742 13.214 87.1705 13.5057C87.1705 13.7481 87.2254 13.9583 87.3352 14.1364C87.4489 14.3144 87.6023 14.4659 87.7955 14.5909C87.9886 14.7121 88.2027 14.8144 88.4375 14.8977C88.6723 14.9811 88.9091 15.0511 89.1477 15.108L90.2386 15.3807C90.678 15.483 91.1004 15.6212 91.5057 15.7955C91.9148 15.9697 92.2803 16.1894 92.6023 16.4545C92.928 16.7197 93.1856 17.0398 93.375 17.4148C93.5644 17.7898 93.6591 18.2292 93.6591 18.733C93.6591 19.4148 93.4848 20.0152 93.1364 20.5341C92.7879 21.0492 92.2841 21.4527 91.625 21.7443C90.9697 22.0322 90.1761 22.1761 89.2443 22.1761C88.339 22.1761 87.553 22.036 86.8864 21.7557C86.2235 21.4754 85.7045 21.0663 85.3295 20.5284C84.9583 19.9905 84.7576 19.3352 84.7273 18.5625H86.8011C86.8314 18.9678 86.9564 19.3049 87.1761 19.5739C87.3958 19.8428 87.6818 20.0436 88.0341 20.1761C88.3902 20.3087 88.7879 20.375 89.2273 20.375C89.6856 20.375 90.0871 20.3068 90.4318 20.1705C90.7803 20.0303 91.053 19.8371 91.25 19.5909C91.447 19.3409 91.5473 19.0492 91.5511 18.7159C91.5473 18.4129 91.4583 18.1629 91.2841 17.9659C91.1098 17.7652 90.8655 17.5985 90.5511 17.4659C90.2405 17.3295 89.8769 17.2083 89.4602 17.1023L88.1364 16.7614C87.178 16.5152 86.4205 16.142 85.8636 15.642C85.3106 15.1383 85.0341 14.4697 85.0341 13.6364C85.0341 12.9508 85.2197 12.3504 85.5909 11.8352C85.9659 11.3201 86.4754 10.9205 87.1193 10.6364C87.7633 10.3485 88.4924 10.2045 89.3068 10.2045C90.1326 10.2045 90.8561 10.3485 91.4773 10.6364C92.1023 10.9205 92.5928 11.3163 92.9489 11.8239C93.3049 12.3277 93.4886 12.9072 93.5 13.5625H91.4716ZM99.8054 13.2727V14.8636H94.7884V13.2727H99.8054ZM96.027 11.1818H98.0838V19.375C98.0838 19.6515 98.1255 19.8636 98.2088 20.0114C98.2959 20.1553 98.4096 20.2538 98.5497 20.3068C98.6899 20.3598 98.8452 20.3864 99.0156 20.3864C99.1444 20.3864 99.2618 20.3769 99.3679 20.358C99.4777 20.339 99.5611 20.322 99.6179 20.3068L99.9645 21.9148C99.8546 21.9527 99.6974 21.9943 99.4929 22.0398C99.2921 22.0852 99.0459 22.1117 98.7543 22.1193C98.2391 22.1345 97.7751 22.0568 97.3622 21.8864C96.9493 21.7121 96.6217 21.4432 96.3793 21.0795C96.1406 20.7159 96.0232 20.2614 96.027 19.7159V11.1818ZM104.037 22.1761C103.484 22.1761 102.986 22.0777 102.543 21.8807C102.103 21.6799 101.755 21.3845 101.497 20.9943C101.243 20.6042 101.116 20.1231 101.116 19.5511C101.116 19.0587 101.207 18.6515 101.389 18.3295C101.571 18.0076 101.819 17.75 102.134 17.5568C102.448 17.3636 102.802 17.2178 103.196 17.1193C103.594 17.017 104.005 16.9432 104.429 16.8977C104.94 16.8447 105.355 16.7973 105.673 16.7557C105.991 16.7102 106.223 16.642 106.366 16.5511C106.514 16.4564 106.588 16.3106 106.588 16.1136V16.0795C106.588 15.6515 106.461 15.3201 106.207 15.0852C105.954 14.8504 105.588 14.733 105.111 14.733C104.607 14.733 104.207 14.8428 103.912 15.0625C103.62 15.2822 103.423 15.5417 103.321 15.8409L101.401 15.5682C101.552 15.0379 101.802 14.5947 102.151 14.2386C102.499 13.8788 102.925 13.6098 103.429 13.4318C103.933 13.25 104.49 13.1591 105.099 13.1591C105.52 13.1591 105.938 13.2083 106.355 13.3068C106.772 13.4053 107.152 13.5682 107.497 13.7955C107.842 14.0189 108.118 14.3239 108.327 14.7102C108.539 15.0966 108.645 15.5795 108.645 16.1591V22H106.668V20.8011H106.599C106.474 21.0436 106.298 21.2708 106.071 21.483C105.848 21.6913 105.565 21.8598 105.224 21.9886C104.887 22.1136 104.491 22.1761 104.037 22.1761ZM104.571 20.6648C104.984 20.6648 105.342 20.5833 105.645 20.4205C105.948 20.2538 106.181 20.0341 106.344 19.7614C106.51 19.4886 106.594 19.1913 106.594 18.8693V17.8409C106.529 17.8939 106.42 17.9432 106.264 17.9886C106.113 18.0341 105.942 18.0739 105.753 18.108C105.563 18.142 105.376 18.1723 105.19 18.1989C105.005 18.2254 104.844 18.2481 104.707 18.267C104.401 18.3087 104.126 18.3769 103.884 18.4716C103.641 18.5663 103.45 18.6989 103.31 18.8693C103.17 19.036 103.099 19.2519 103.099 19.517C103.099 19.8958 103.238 20.1818 103.514 20.375C103.791 20.5682 104.143 20.6648 104.571 20.6648ZM114.52 22.1705C113.649 22.1705 112.901 21.9792 112.276 21.5966C111.654 21.214 111.175 20.6856 110.838 20.0114C110.505 19.3333 110.338 18.553 110.338 17.6705C110.338 16.7841 110.509 16.0019 110.849 15.3239C111.19 14.642 111.671 14.1117 112.293 13.733C112.918 13.3504 113.656 13.1591 114.509 13.1591C115.217 13.1591 115.844 13.2898 116.389 13.5511C116.938 13.8087 117.376 14.1742 117.702 14.6477C118.027 15.1174 118.213 15.6667 118.259 16.2955H116.293C116.213 15.875 116.024 15.5246 115.724 15.2443C115.429 14.9602 115.033 14.8182 114.537 14.8182C114.116 14.8182 113.747 14.9318 113.429 15.1591C113.111 15.3826 112.863 15.7045 112.685 16.125C112.51 16.5455 112.423 17.0492 112.423 17.6364C112.423 18.2311 112.51 18.7424 112.685 19.1705C112.859 19.5947 113.103 19.9223 113.418 20.1534C113.736 20.3807 114.109 20.4943 114.537 20.4943C114.84 20.4943 115.111 20.4375 115.349 20.3239C115.592 20.2064 115.795 20.0379 115.957 19.8182C116.12 19.5985 116.232 19.3314 116.293 19.017H118.259C118.209 19.6345 118.027 20.1818 117.713 20.6591C117.399 21.1326 116.971 21.5038 116.429 21.7727C115.887 22.0379 115.251 22.1705 114.52 22.1705ZM121.822 19.2614L121.817 16.7784H122.146L125.283 13.2727H127.686L123.828 17.5682H123.402L121.822 19.2614ZM119.947 22V10.3636H122.004V22H119.947ZM125.425 22L122.584 18.0284L123.97 16.5795L127.885 22H125.425Z" fill="#6172F3"/>
</svg>
